<svg xmlns="http://www.w3.org/2000/svg" viewBox="0 0 73.44 13.95"><defs><style>.cls-1{fill:#fff;}</style></defs><title>vrubellogo_1</title><g id="Layer_2" data-name="Layer 2"><g id="Layer_1-2" data-name="Layer 1"><path class="cls-1" d="M3.83,0,7.11,8.26,10.4,0h3.84L8.51,13.57H5.71L0,0Z"/><path class="cls-1" d="M27,13.57h-4.4L19.19,8.35v5.22H15.66V0h5.49a5.4,5.4,0,0,1,2,.33,4,4,0,0,1,1.39.91,3.77,3.77,0,0,1,.83,1.33,4.6,4.6,0,0,1,.28,1.62,4,4,0,0,1-.75,2.51A3.71,3.71,0,0,1,22.68,8Zm-7.76-7.5h.66a2.59,2.59,0,0,0,1.61-.44A1.46,1.46,0,0,0,22,4.39a1.48,1.48,0,0,0-.55-1.24,2.59,2.59,0,0,0-1.61-.43h-.66Z"/><path class="cls-1" d="M31.82,0V7.38c0,.4,0,.8.05,1.21a3.35,3.35,0,0,0,.27,1.13,1.88,1.88,0,0,0,.71.82,2.5,2.5,0,0,0,1.37.31,2.47,2.47,0,0,0,1.36-.31,1.94,1.94,0,0,0,.71-.82,3.35,3.35,0,0,0,.28-1.13c0-.41,0-.81,0-1.21V0h3.51V7.87q0,3.17-1.45,4.62A6,6,0,0,1,34.22,14a6.1,6.1,0,0,1-4.47-1.46Q28.3,11,28.3,7.87V0Z"/><path class="cls-1" d="M43,0h5.25a4.06,4.06,0,0,1,2.85.9,3.38,3.38,0,0,1,1,2.59,3.57,3.57,0,0,1-.37,1.7,3.18,3.18,0,0,1-1.13,1.15,4,4,0,0,1,1.29.44,2.67,2.67,0,0,1,.86.73,2.46,2.46,0,0,1,.48,1,4.26,4.26,0,0,1,.15,1.15A3.92,3.92,0,0,1,53,11.32a3.38,3.38,0,0,1-.93,1.24,4,4,0,0,1-1.47.76,6.86,6.86,0,0,1-1.94.25H43Zm3.52,5.33h.65c1.11,0,1.66-.44,1.66-1.32S48.25,2.7,47.14,2.7h-.65Zm0,5.51h.78a3.92,3.92,0,0,0,1.91-.35,1.17,1.17,0,0,0,.57-1.09,1.18,1.18,0,0,0-.57-1.1A3.94,3.94,0,0,0,47.27,8h-.78Z"/><path class="cls-1" d="M63.14,3H59V5.26h4v3H59v2.34h4.19v3H55.42V0h7.72Z"/><path class="cls-1" d="M69.21,0V10.58h4.23v3H65.68V0Z"/></g></g></svg>
